<svg width="150" height="150" viewBox="0 0 150 150" fill="none" xmlns="http://www.w3.org/2000/svg">
<g clip-path="url(#clip0_465_2321)">
<rect width="150" height="150" fill="#0B0E12"/>
<path d="M130 50.69C130 63.9202 124.555 74.557 113.624 82.6837C102.721 90.7687 87.451 94.8182 67.8279 94.8182H56.9937L48.6746 131H20L45.5377 20H85.2676C92.495 20 98.8103 20.5131 104.186 21.4978C109.562 22.4963 114.205 24.202 118.102 26.6428C121.985 29.0558 124.928 32.2455 126.96 36.1424C128.991 40.0255 130 44.8932 130 50.69ZM99.5704 53.4636C99.5704 49.1645 97.995 45.961 94.8857 43.8947C91.7626 41.8145 87.1194 40.7605 80.956 40.7605H69.4171L61.7889 73.9052H72.0565C80.7349 73.9052 87.5063 72.1162 92.3153 68.5798C97.1658 65.0435 99.5704 60.0094 99.5704 53.4636Z" fill="#E31E24"/>
</g>
<defs>
<clipPath id="clip0_465_2321">
<rect width="150" height="150" fill="white"/>
</clipPath>
</defs>
</svg>
