<svg width="206" height="30" viewBox="0 0 206 30" fill="none" xmlns="http://www.w3.org/2000/svg">
<path d="M28.2732 8.44643C28.2732 11.835 26.8737 14.5593 24.0642 16.6407C21.2617 18.7114 17.3369 19.7486 12.2932 19.7486H9.50846L7.37021 29.0155H0L6.56392 0.58606H16.7757C18.6333 0.58606 20.2565 0.71748 21.6382 0.969666C23.0199 1.2254 24.2134 1.66229 25.215 2.28742C26.2131 2.90545 26.9696 3.72239 27.4918 4.72048C28.0139 5.71501 28.2732 6.96173 28.2732 8.44643ZM20.4519 9.15681C20.4519 8.05572 20.047 7.23523 19.2478 6.706C18.4451 6.17321 17.2516 5.90326 15.6675 5.90326H12.7016L10.741 14.3923H13.38C15.6106 14.3923 17.3511 13.9341 18.5871 13.0284C19.8339 12.1227 20.4519 10.8333 20.4519 9.15681Z" fill="#E31E24"/>
<path d="M55.8361 0.58606L54.5929 5.98141H41.3017L40.1295 11.0677H52.4724L51.215 16.4631H38.8828L37.2347 23.6202H50.4798L49.2615 29.0155H28.6569L35.2208 0.58606H55.8361Z" fill="#E31E24"/>
<path d="M79.7368 19.3117C79.7368 20.8568 79.3887 22.2776 78.6925 23.5669C78.0035 24.8598 77.0125 25.9325 75.7196 26.8062C74.3983 27.712 72.7999 28.4046 70.9316 28.8877C69.0526 29.3601 66.8824 29.6016 64.4139 29.6016C62.3466 29.6016 60.386 29.4276 58.5212 29.0688C56.6494 28.7101 55.0794 28.2732 53.8079 27.7511L55.2819 21.4677H55.9674C57.1786 22.2527 58.5141 22.9276 59.9882 23.503C61.4587 24.0748 62.954 24.3625 64.4636 24.3625C65.5611 24.3625 66.5841 24.2595 67.5218 24.0571C68.4666 23.8475 69.2551 23.5349 69.8944 23.1123C70.5515 22.6754 71.0595 22.1461 71.4182 21.5139C71.777 20.8888 71.9546 20.1322 71.9546 19.2478C71.9546 18.1716 71.5958 17.415 70.8854 16.971C70.1679 16.527 68.9283 16.3068 67.1772 16.3068H61.5901L62.7622 11.4194H68.0226C69.9193 11.4194 71.3401 11.1175 72.292 10.5243C73.2368 9.93468 73.7127 9.04671 73.7127 7.86037C73.7127 7.03278 73.2581 6.38633 72.3524 5.93169C71.4466 5.46994 70.2319 5.23906 68.7152 5.23906C67.5005 5.23906 66.1188 5.44863 64.5701 5.8642C63.018 6.28332 61.2846 6.94753 59.3701 7.86037H58.6562L60.0344 1.87541C61.2207 1.45273 62.7977 1.03716 64.7655 0.618032C66.7404 0.209563 68.7685 0 70.8393 0C74.2029 0 76.8029 0.546994 78.6463 1.63743C80.4933 2.72431 81.4168 4.25519 81.4168 6.23005C81.4168 8.03086 80.7384 9.60081 79.3887 10.9434C78.0425 12.286 76.3909 13.1776 74.4444 13.6287L74.3841 13.9093C74.9453 14.0123 75.5597 14.1934 76.2097 14.4634C76.8668 14.7369 77.4351 15.0743 77.9253 15.4792C78.4439 15.9019 78.8737 16.4311 79.2218 17.0705C79.5663 17.7098 79.7368 18.4593 79.7368 19.3117Z" fill="#E31E24"/>
<path d="M109.555 29.0155H102.132L101.478 23.1904H91.1029L87.7641 29.0155H80.1062L97.1376 0.58606H105.605L109.555 29.0155ZM100.945 18.1041L99.7838 7.98468L93.9906 18.1041H100.945Z" fill="#E31E24"/>
<path d="M143.27 29.0155H135.885L140.18 10.4142L132.397 22.3308H127.325L124.771 9.63277L120.3 29.0155H113.359L119.923 0.58606H128.33L131.499 14.847L141.131 0.58606H149.834L143.27 29.0155Z" fill="#E31E24"/>
<path d="M177.602 0.58606L176.359 5.98141H163.068L161.896 11.0677H174.239L172.981 16.4631H160.653L159.001 23.6202H172.246L171.028 29.0155H150.427L156.987 0.58606H177.602Z" fill="#E31E24"/>
<path d="M204.736 6.09862H195.845L190.567 29.0155H183.2L188.475 6.09862H179.641L180.902 0.58606H206L204.736 6.09862Z" fill="#E31E24"/>
</svg>
