<svg width="78" height="79" viewBox="0 0 78 79" fill="none" xmlns="http://www.w3.org/2000/svg">
<path d="M14.555 0.378396C14.3517 0.153618 14.0666 0.0181113 13.7625 0.00168727C13.4584 -0.0147368 13.1601 0.0892665 12.9334 0.290818C12.7066 0.492369 12.5699 0.774957 12.5533 1.07642C12.5368 1.37788 12.6417 1.67352 12.845 1.89829L17.3423 6.78853H13.7C12.1883 6.78853 10.7384 7.38381 9.66949 8.44343C8.60053 9.50304 8 10.9402 8 12.4387V44.0797C8 45.5782 8.60053 47.0154 9.66949 48.075C10.7384 49.1346 12.1883 49.7299 13.7 49.7299H56.735L58.4678 51.6199C58.5679 51.7318 58.6894 51.8228 58.8253 51.8878C58.9612 51.9527 59.1087 51.9903 59.2593 51.9984C59.41 52.0064 59.5607 51.9847 59.7029 51.9346C59.845 51.8844 59.9757 51.8068 60.0873 51.7062C60.1989 51.6057 60.2893 51.4841 60.3532 51.3487C60.4171 51.2132 60.4533 51.0665 60.4596 50.9171C60.4659 50.7677 60.4422 50.6186 60.3899 50.4783C60.3376 50.338 60.2578 50.2094 60.155 50.1L14.555 0.378396ZM42.3653 34.062C40.7247 35.4325 38.6455 36.1796 36.5 36.1695C34.6908 36.1698 32.9224 35.6368 31.4197 34.6381C29.917 33.6395 28.7479 32.2204 28.061 30.5613C27.3742 28.9022 27.2007 27.0781 27.5625 25.321C27.9244 23.5638 28.8053 21.9531 30.0932 20.6936L42.3653 34.062ZM13.7 47.4698C12.793 47.4698 11.9231 47.1127 11.2817 46.4769C10.6403 45.8411 10.28 44.9788 10.28 44.0797V12.4387C10.28 11.5396 10.6403 10.6773 11.2817 10.0415C11.9231 9.40577 12.793 9.0486 13.7 9.0486H19.4L28.5456 19.0212C26.4217 21.064 25.1824 23.8456 25.0898 26.7777C24.9972 29.7099 26.0586 32.5628 28.0495 34.7333C30.0404 36.9039 32.8048 38.2219 35.7583 38.4087C38.7117 38.5955 41.6227 37.6365 43.8758 35.7344L54.6516 47.4698H13.7ZM65 12.4387V42.3847C65 42.6844 64.8799 42.9718 64.6661 43.1837C64.4523 43.3956 64.1623 43.5147 63.86 43.5147C63.5577 43.5147 63.2677 43.3956 63.0539 43.1837C62.8401 42.9718 62.72 42.6844 62.72 42.3847V12.4387C62.72 11.5396 62.3597 10.6773 61.7183 10.0415C61.0769 9.40577 60.207 9.0486 59.3 9.0486H50.18C49.9927 9.04825 49.8085 9.00219 49.6434 8.91449C49.4784 8.82678 49.3377 8.70014 49.2338 8.54573L45.0073 2.26838H27.987L27.7533 2.61587C27.6726 2.74438 27.5666 2.85549 27.4417 2.94261C27.3168 3.02973 27.1755 3.09108 27.0262 3.12301C26.8769 3.15494 26.7226 3.15681 26.5726 3.1285C26.4225 3.10019 26.2797 3.04228 26.1527 2.9582C26.0257 2.87413 25.917 2.76562 25.8331 2.6391C25.7492 2.51258 25.6918 2.37064 25.6643 2.2217C25.6368 2.07277 25.6398 1.91988 25.6731 1.77212C25.7064 1.62435 25.7693 1.48473 25.8581 1.36153L26.4281 0.514C26.5322 0.358279 26.6737 0.230578 26.8398 0.142328C27.0059 0.0540773 27.1915 0.00803089 27.38 0.00830858H45.62C45.8077 0.00818771 45.9926 0.0540253 46.1581 0.141751C46.3237 0.229477 46.4649 0.356375 46.569 0.511174L50.7871 6.78853H59.3C60.8117 6.78853 62.2616 7.38381 63.3305 8.44343C64.3995 9.50304 65 10.9402 65 12.4387Z" fill="#E0E7ED"/>
<path d="M8.128 63.8H9.6V75H8.128V69.96H2.688V75H1.2V63.8H2.688V68.552H8.128V63.8ZM13.4849 73.592H18.6849V75H11.9969V63.8H18.6049V65.208H13.4849V68.648H18.2049V70.04H13.4849V73.592ZM27.6493 63.8V65.208H24.3373V75H22.8653V65.208H19.5693V63.8H27.6493ZM42.9779 66.296C43.9485 67.064 44.4339 68.0987 44.4339 69.4C44.4339 70.7013 43.9485 71.736 42.9779 72.504C42.0179 73.272 40.7325 73.7093 39.1219 73.816V75.08H37.6659V73.816C36.0659 73.7093 34.7805 73.272 33.8099 72.504C32.8499 71.736 32.3699 70.7013 32.3699 69.4C32.3699 68.0987 32.8499 67.064 33.8099 66.296C34.7805 65.528 36.0659 65.0907 37.6659 64.984V63.72H39.1219V64.984C40.7325 65.0907 42.0179 65.528 42.9779 66.296ZM39.1219 72.456C40.3272 72.3707 41.2659 72.0773 41.9379 71.576C42.6099 71.064 42.9459 70.3387 42.9459 69.4C42.9459 68.4613 42.6099 67.7413 41.9379 67.24C41.2659 66.728 40.3272 66.4293 39.1219 66.344V72.456ZM33.8419 69.4C33.8419 70.328 34.1779 71.048 34.8499 71.56C35.5219 72.0613 36.4605 72.3547 37.6659 72.44V66.344C36.4605 66.4293 35.5219 66.728 34.8499 67.24C34.1779 67.7413 33.8419 68.4613 33.8419 69.4ZM55.3714 73.512C54.2514 74.6427 52.8807 75.208 51.2594 75.208C49.638 75.208 48.2674 74.6427 47.1474 73.512C46.0274 72.3813 45.4674 71.0107 45.4674 69.4C45.4674 67.7787 46.0274 66.408 47.1474 65.288C48.2674 64.1573 49.638 63.592 51.2594 63.592C52.8807 63.592 54.2514 64.1573 55.3714 65.288C56.502 66.408 57.0674 67.7787 57.0674 69.4C57.0674 71.0107 56.502 72.3813 55.3714 73.512ZM48.1714 72.504C49.0034 73.336 50.0327 73.752 51.2594 73.752C52.486 73.752 53.51 73.336 54.3314 72.504C55.1634 71.6613 55.5794 70.6267 55.5794 69.4C55.5794 68.1627 55.1634 67.128 54.3314 66.296C53.51 65.4533 52.486 65.032 51.2594 65.032C50.0327 65.032 49.0034 65.4533 48.1714 66.296C47.35 67.128 46.9394 68.1627 46.9394 69.4C46.9394 70.6267 47.35 71.6613 48.1714 72.504ZM65.3836 63.8V65.208H62.0716V75H60.5996V65.208H57.3036V63.8H65.3836ZM75.5276 73.512C74.4076 74.6427 73.037 75.208 71.4156 75.208C69.7943 75.208 68.4236 74.6427 67.3036 73.512C66.1836 72.3813 65.6236 71.0107 65.6236 69.4C65.6236 67.7787 66.1836 66.408 67.3036 65.288C68.4236 64.1573 69.7943 63.592 71.4156 63.592C73.037 63.592 74.4076 64.1573 75.5276 65.288C76.6583 66.408 77.2236 67.7787 77.2236 69.4C77.2236 71.0107 76.6583 72.3813 75.5276 73.512ZM68.3276 72.504C69.1596 73.336 70.189 73.752 71.4156 73.752C72.6423 73.752 73.6663 73.336 74.4876 72.504C75.3196 71.6613 75.7356 70.6267 75.7356 69.4C75.7356 68.1627 75.3196 67.128 74.4876 66.296C73.6663 65.4533 72.6423 65.032 71.4156 65.032C70.189 65.032 69.1596 65.4533 68.3276 66.296C67.5063 67.128 67.0956 68.1627 67.0956 69.4C67.0956 70.6267 67.5063 71.6613 68.3276 72.504Z" fill="#E0E7ED"/>
</svg>
