<svg width="43" height="43" viewBox="0 0 43 43" fill="none" xmlns="http://www.w3.org/2000/svg">
<path d="M42.2209 22.8896C41.8757 26.9033 40.3913 30.7349 37.9424 33.9336C35.4935 37.1323 32.182 39.5651 28.3974 40.9457C24.6128 42.3263 20.5127 42.5973 16.5794 41.7268C12.646 40.8563 9.04311 38.8805 6.19451 36.032C3.34592 33.1834 1.37015 29.5804 0.499658 25.6471C-0.370836 21.7138 -0.0998418 17.6136 1.28076 13.8291C2.66136 10.0445 5.09413 6.73296 8.29285 4.28406C11.4916 1.83516 15.3232 0.350764 19.3369 0.00552083C19.5503 -0.0120845 19.7651 0.0125142 19.9689 0.0779129C20.1728 0.143312 20.3619 0.248229 20.5252 0.386676C20.6885 0.525122 20.823 0.694386 20.9209 0.884803C21.0189 1.07522 21.0783 1.28306 21.0959 1.49646C21.1136 1.70986 21.089 1.92463 21.0236 2.12852C20.9582 2.33241 20.8532 2.52143 20.7148 2.68477C20.5763 2.84812 20.4071 2.98259 20.2167 3.08052C20.0262 3.17845 19.8184 3.23792 19.605 3.25552C16.2079 3.5474 12.9649 4.80347 10.2574 6.87595C7.54997 8.94842 5.49078 11.7511 4.32214 14.9542C3.15349 18.1572 2.924 21.6274 3.66068 24.9565C4.39736 28.2856 6.06955 31.335 8.48051 33.746C10.8915 36.1569 13.9409 37.8291 17.2699 38.5658C20.599 39.3025 24.0692 39.073 27.2723 37.9043C30.4754 36.7357 33.278 34.6765 35.3505 31.969C37.423 29.2616 38.6791 26.0185 38.9709 22.6215C39.0065 22.1905 39.2118 21.7913 39.5417 21.5117C39.8716 21.2321 40.299 21.095 40.73 21.1305C41.161 21.1661 41.5602 21.3714 41.8398 21.7013C42.1194 22.0312 42.2565 22.4586 42.2209 22.8896ZM19.4709 9.75552V21.1305C19.4709 21.5615 19.6422 21.9748 19.9469 22.2796C20.2516 22.5843 20.665 22.7555 21.0959 22.7555H32.4709C32.9019 22.7555 33.3152 22.5843 33.62 22.2796C33.9247 21.9748 34.0959 21.5615 34.0959 21.1305C34.0959 20.6995 33.9247 20.2862 33.62 19.9815C33.3152 19.6767 32.9019 19.5055 32.4709 19.5055H22.7209V9.75552C22.7209 9.32454 22.5497 8.91122 22.245 8.60647C21.9402 8.30173 21.5269 8.13052 21.0959 8.13052C20.665 8.13052 20.2516 8.30173 19.9469 8.60647C19.6422 8.91122 19.4709 9.32454 19.4709 9.75552Z" fill="black"/>
<path d="M28.9499 4.4697C28.5491 4.73754 28.0778 4.88049 27.5957 4.88049C26.9492 4.88049 26.3293 4.62369 25.8721 4.16657C25.415 3.70945 25.1582 3.08946 25.1582 2.44299C25.1582 1.9609 25.3012 1.48964 25.569 1.08879C25.8368 0.687947 26.2175 0.375527 26.6629 0.191038C27.1083 0.0065493 27.5984 -0.0417213 28.0712 0.0523301C28.5441 0.146382 28.9784 0.378531 29.3193 0.719421C29.6602 1.06031 29.8923 1.49463 29.9864 1.96746C30.0804 2.44029 30.0321 2.93039 29.8477 3.37579C29.6632 3.82118 29.3507 4.20187 28.9499 4.4697Z" fill="#B32425"/>
<path d="M36.2624 9.3447C35.8616 9.61254 35.3903 9.75549 34.9082 9.75549C34.2617 9.75549 33.6418 9.49869 33.1846 9.04157C32.7275 8.58445 32.4707 7.96446 32.4707 7.31799C32.4707 6.8359 32.6137 6.36464 32.8815 5.96379C33.1493 5.56295 33.53 5.25053 33.9754 5.06604C34.4208 4.88155 34.9109 4.83328 35.3837 4.92733C35.8566 5.02138 36.2909 5.25353 36.6318 5.59442C36.9727 5.93531 37.2048 6.36963 37.2989 6.84246C37.3929 7.31529 37.3446 7.80539 37.1602 8.25078C36.9757 8.69618 36.6632 9.07687 36.2624 9.3447Z" fill="#B32425"/>
<path d="M41.1374 16.6572C40.7366 16.925 40.2653 17.068 39.7832 17.068C39.1367 17.068 38.5168 16.8112 38.0596 16.3541C37.6025 15.8969 37.3457 15.277 37.3457 14.6305C37.3457 14.1484 37.4887 13.6771 37.7565 13.2763C38.0243 12.8754 38.405 12.563 38.8504 12.3785C39.2958 12.194 39.7859 12.1458 40.2587 12.2398C40.7316 12.3339 41.1659 12.566 41.5068 12.9069C41.8477 13.2478 42.0798 13.6821 42.1739 14.155C42.2679 14.6278 42.2196 15.1179 42.0352 15.5633C41.8507 16.0087 41.5382 16.3894 41.1374 16.6572Z" fill="#B32425"/>
</svg>
