<svg width="30" height="32" viewBox="0 0 30 32" fill="none" xmlns="http://www.w3.org/2000/svg">
<path d="M6.92308 16C6.61706 16 6.32357 16.1204 6.10718 16.3347C5.8908 16.5491 5.76923 16.8398 5.76923 17.1429V22.8571C5.76923 23.1602 5.8908 23.4509 6.10718 23.6653C6.32357 23.8796 6.61706 24 6.92308 24C7.2291 24 7.52258 23.8796 7.73897 23.6653C7.95536 23.4509 8.07692 23.1602 8.07692 22.8571V21.7143H8.65385C9.41889 21.7143 10.1526 21.4133 10.6936 20.8774C11.2345 20.3416 11.5385 19.6149 11.5385 18.8571C11.5385 18.0994 11.2345 17.3727 10.6936 16.8368C10.1526 16.301 9.41889 16 8.65385 16H6.92308ZM8.65385 19.4286H8.07692V18.2857H8.65385C8.80686 18.2857 8.9536 18.3459 9.06179 18.4531C9.16999 18.5602 9.23077 18.7056 9.23077 18.8571C9.23077 19.0087 9.16999 19.154 9.06179 19.2612C8.9536 19.3684 8.80686 19.4286 8.65385 19.4286ZM12.6923 17.1429C12.6923 16.8398 12.8139 16.5491 13.0303 16.3347C13.2466 16.1204 13.5401 16 13.8462 16H14.4231C15.4941 16 16.5213 16.4214 17.2787 17.1716C18.0361 17.9217 18.4615 18.9391 18.4615 20C18.4615 21.0609 18.0361 22.0783 17.2787 22.8284C16.5213 23.5786 15.4941 24 14.4231 24H13.8462C13.5401 24 13.2466 23.8796 13.0303 23.6653C12.8139 23.4509 12.6923 23.1602 12.6923 22.8571V17.1429ZM15 21.6171C15.3381 21.4994 15.6309 21.2805 15.838 20.9908C16.0452 20.7012 16.1564 20.355 16.1564 20C16.1564 19.645 16.0452 19.2988 15.838 19.0092C15.6309 18.7195 15.3381 18.5007 15 18.3829V21.6171ZM19.6154 22.8571V17.1429C19.6154 16.8398 19.7369 16.5491 19.9533 16.3347C20.1697 16.1204 20.4632 16 20.7692 16H24.2308C24.5368 16 24.8303 16.1204 25.0467 16.3347C25.2631 16.5491 25.3846 16.8398 25.3846 17.1429C25.3846 17.446 25.2631 17.7367 25.0467 17.951C24.8303 18.1653 24.5368 18.2857 24.2308 18.2857H21.9231V19.4286H24.2308C24.5368 19.4286 24.8303 19.549 25.0467 19.7633C25.2631 19.9776 25.3846 20.2683 25.3846 20.5714C25.3846 20.8745 25.2631 21.1652 25.0467 21.3796C24.8303 21.5939 24.5368 21.7143 24.2308 21.7143H21.9231V22.8571C21.9231 23.1602 21.8015 23.4509 21.5851 23.6653C21.3687 23.8796 21.0752 24 20.7692 24C20.4632 24 20.1697 23.8796 19.9533 23.6653C19.7369 23.4509 19.6154 23.1602 19.6154 22.8571ZM3.46154 3.42857V12.5714H2.30769C1.69565 12.5714 1.10868 12.8122 0.675907 13.2409C0.243131 13.6696 0 14.2509 0 14.8571V25.1429C0 25.7491 0.243131 26.3304 0.675907 26.7591C1.10868 27.1878 1.69565 27.4286 2.30769 27.4286H3.46154V28.5714C3.46154 29.4807 3.82624 30.3528 4.4754 30.9958C5.12456 31.6388 6.00502 32 6.92308 32H23.0769C23.995 32 24.8754 31.6388 25.5246 30.9958C26.1738 30.3528 26.5385 29.4807 26.5385 28.5714V27.4286H27.6923C28.3043 27.4286 28.8913 27.1878 29.3241 26.7591C29.7569 26.3304 30 25.7491 30 25.1429V14.8571C30 14.2509 29.7569 13.6696 29.3241 13.2409C28.8913 12.8122 28.3043 12.5714 27.6923 12.5714H26.5385V8.94629C26.538 8.03744 26.1732 7.16598 25.5242 6.52343L19.9535 1.00343C19.3043 0.360821 18.424 -0.000108916 17.5062 2.46541e-08H6.92308C6.00502 2.46541e-08 5.12456 0.361224 4.4754 1.00421C3.82624 1.64719 3.46154 2.51926 3.46154 3.42857ZM6.92308 2.28571H15V8C15 8.90931 15.3647 9.78139 16.0139 10.4244C16.663 11.0673 17.5435 11.4286 18.4615 11.4286H24.2308V12.5714H5.76923V3.42857C5.76923 3.12547 5.8908 2.83478 6.10718 2.62045C6.32357 2.40612 6.61706 2.28571 6.92308 2.28571ZM5.76923 28.5714V27.4286H24.2308V28.5714C24.2308 28.8745 24.1092 29.1652 23.8928 29.3796C23.6764 29.5939 23.3829 29.7143 23.0769 29.7143H6.92308C6.61706 29.7143 6.32357 29.5939 6.10718 29.3796C5.8908 29.1652 5.76923 28.8745 5.76923 28.5714ZM24.2308 8.94629V9.14286H18.4615C18.1555 9.14286 17.862 9.02245 17.6456 8.80812C17.4293 8.5938 17.3077 8.3031 17.3077 8V2.28571H17.5062C17.8121 2.28578 18.1056 2.40623 18.3219 2.62057L23.8927 8.13829C24.1091 8.35256 24.2307 8.64321 24.2308 8.94629ZM2.30769 14.8571H27.6923V25.1429H2.30769V14.8571Z" fill="#6F859C"/>
</svg>
