<svg width="18" height="13" viewBox="0 0 18 13" fill="none" xmlns="http://www.w3.org/2000/svg">
<path d="M13.5 3.00009H11.414L12.707 1.70709C12.7998 1.61425 12.8735 1.50403 12.9237 1.38272C12.974 1.26141 12.9998 1.13139 12.9998 1.00009C12.9998 0.868791 12.974 0.738775 12.9237 0.617467C12.8735 0.49616 12.7998 0.385938 12.707 0.293093C12.6142 0.200249 12.5039 0.1266 12.3826 0.0763531C12.2613 0.026106 12.1313 0.000244141 12 0.000244141C11.8687 0.000244141 11.7387 0.026106 11.6174 0.0763531C11.4961 0.1266 11.3858 0.200249 11.293 0.293093L7.586 4.00009L11.293 7.70709C11.3857 7.80028 11.4958 7.87423 11.6171 7.92469C11.7385 7.97515 11.8686 8.00113 12 8.00113C12.1314 8.00113 12.2615 7.97515 12.3829 7.92469C12.5042 7.87423 12.6143 7.80028 12.707 7.70709C12.8945 7.51957 12.9998 7.26526 12.9998 7.00009C12.9998 6.73493 12.8945 6.48062 12.707 6.29309L11.414 5.00009H13.5C14.879 5.00009 16 6.34609 16 8.00009C16 9.65409 14.654 11.0001 13 11.0001H5C3.346 11.0001 2 9.65409 2 8.00009C2 6.34609 3.346 5.00009 5 5.00009C5.26522 5.00009 5.51957 4.89474 5.70711 4.7072C5.89464 4.51966 6 4.26531 6 4.00009C6 3.73488 5.89464 3.48052 5.70711 3.29299C5.51957 3.10545 5.26522 3.00009 5 3.00009C2.243 3.00009 0 5.24309 0 8.00009C0 10.7571 2.243 13.0001 5 13.0001H13C15.757 13.0001 18 10.7571 18 8.00009C18 5.24309 15.981 3.00009 13.5 3.00009Z" fill="#B32425"/>
</svg>
